<svg width="44" height="44" viewBox="0 0 44 44" fill="none" xmlns="http://www.w3.org/2000/svg">
  <defs>
    <linearGradient id="bg" x1="0" y1="0" x2="44" y2="44">
      <stop stop-color="#0d0d0d"/>
      <stop offset="1" stop-color="#111113"/>
    </linearGradient>
    <linearGradient id="ring" x1="0" y1="0" x2="44" y2="44">
      <stop stop-color="#10b981"/>
      <stop offset="0.5" stop-color="#06b6d4"/>
      <stop offset="1" stop-color="#8b5cf6"/>
    </linearGradient>
    <linearGradient id="pulse" x1="8" y1="22" x2="36" y2="22">
      <stop stop-color="#10b981"/>
      <stop offset="0.4" stop-color="#06b6d4"/>
      <stop offset="1" stop-color="#8b5cf6"/>
    </linearGradient>
    <linearGradient id="glow" x1="22" y1="8" x2="22" y2="36">
      <stop stop-color="#10b981" stop-opacity="0.25"/>
      <stop offset="1" stop-color="#8b5cf6" stop-opacity="0"/>
    </linearGradient>
  </defs>
  <rect x="2" y="2" width="40" height="40" rx="12" fill="url(#bg)"/>
  <rect x="2" y="2" width="40" height="40" rx="12" fill="none" stroke="url(#ring)" stroke-width="1.2" stroke-opacity="0.6"/>
  <ellipse cx="22" cy="16" rx="14" ry="10" fill="url(#glow)"/>
  <path d="M22 10 L28.5 13.8 L28.5 21.2 L22 25 L15.5 21.2 L15.5 13.8 Z" fill="none" stroke="url(#ring)" stroke-width="0.6" stroke-opacity="0.2"/>
  <path d="M7 24 L11 24 L13.5 27 L16 16 L19 30 L22 11 L25 28 L27.5 17 L30 24 L33 24 L37 24" stroke="url(#pulse)" stroke-width="2.2" stroke-linecap="round" stroke-linejoin="round" fill="none"/>
  <circle cx="37" cy="24" r="2.5" fill="#10b981"/>
</svg>
